<svg viewBox="0 0 48 48" xmlns="http://www.w3.org/2000/svg" xmlns:xlink="http://www.w3.org/1999/xlink"><radialGradient id="a" cx="23.59" cy="-50.94" gradientTransform="matrix(1 0 0 -1 0 -18)" gradientUnits="userSpaceOnUse" r="15.07"><stop offset="0" stop-color="#eff2f7"/><stop offset=".18" stop-color="#c5c9d0"/><stop offset=".35" stop-color="#a6aab3"/><stop offset=".44" stop-color="#9a9fa8"/><stop offset=".56" stop-color="#7e838a"/><stop offset=".82" stop-color="#393a3e"/><stop offset="1" stop-color="#070708"/></radialGradient><radialGradient id="b" cx="24" cy="-454.05" gradientTransform="matrix(1 0 0 -.28 0 -86.47)" gradientUnits="userSpaceOnUse" r="8.79"><stop offset="0" stop-color="#070708"/><stop offset=".08" stop-color="#313336"/><stop offset=".18" stop-color="#5e6167"/><stop offset=".26" stop-color="#7f838a"/><stop offset=".33" stop-color="#9397a0"/><stop offset=".38" stop-color="#9a9fa8"/><stop offset=".42" stop-color="#a0a5ad"/><stop offset="1" stop-color="#eff2f7"/></radialGradient><radialGradient id="c" cx="24.04" cy=".55" gradientTransform="matrix(1 0 0 -1.54 0 36.13)" gradientUnits="userSpaceOnUse" r="4.39"><stop offset="0" stop-color="#eff2f7"/><stop offset=".21" stop-color="#c5c9d0"/><stop offset=".4" stop-color="#a6aab3"/><stop offset=".51" stop-color="#9a9fa8"/><stop offset=".61" stop-color="#7e838a"/><stop offset=".84" stop-color="#393a3e"/><stop offset="1" stop-color="#070708"/></radialGradient><radialGradient id="d" cx="24.41" cy="-46.81" fx="24.41" fy="-46.81" gradientTransform="matrix(1 0 0 -.9 0 -30.25)" gradientUnits="userSpaceOnUse" r="20.37"><stop offset="0" stop-color="#eff2f7"/><stop offset=".11" stop-color="#e7eaef"/><stop offset=".29" stop-color="#d0d4da"/><stop offset=".52" stop-color="#abafb8"/><stop offset=".6" stop-color="#9a9fa8"/><stop offset=".7" stop-color="#6a6e74"/><stop offset=".8" stop-color="#404246"/><stop offset=".88" stop-color="#212224"/><stop offset=".95" stop-color="#0e0e0f"/><stop offset="1" stop-color="#070708"/></radialGradient><radialGradient id="e" cx="24.28" cy="3.55" gradientTransform="matrix(1 0 0 -1.32 0 19.98)" gradientUnits="userSpaceOnUse" r="9.78"><stop offset=".15" stop-color="#db1128"/><stop offset=".29" stop-color="#d71127"/><stop offset=".43" stop-color="#cb1126"/><stop offset=".57" stop-color="#b71223"/><stop offset=".71" stop-color="#9a1220"/><stop offset=".85" stop-color="#76131b"/><stop offset=".98" stop-color="#491416"/><stop offset="1" stop-color="#441415"/></radialGradient><radialGradient id="f" cx="24.15" cy="-545.3" gradientTransform="matrix(1 0 0 -.23 0 -109.63)" gradientUnits="userSpaceOnUse" r="17.46"><stop offset="0" stop-color="#ed828d"/><stop offset="1" stop-color="#cf001c"/></radialGradient><linearGradient id="g" gradientTransform="matrix(1 0 0 -1 0 -18)" gradientUnits="userSpaceOnUse" x1="6.41" x2="30.82" y1="-34.34" y2="-34.34"><stop offset=".36" stop-color="#fff" stop-opacity=".7"/><stop offset="1" stop-color="#fff" stop-opacity="0"/></linearGradient><radialGradient id="h" cx="25.01" cy="-295.84" fx="25.01" fy="-295.84" gradientTransform="matrix(1.02 0 0 -.36 -1.45 -97.91)" r="15.52" xlink:href="#d"/><radialGradient id="i" cx="24" cy="-1059.43" fx="24" fy="-1059.43" gradientTransform="matrix(1 0 0 -.35 0 -369.01)" r="9.18" xlink:href="#d"/><radialGradient id="j" cx="25.01" cy="-295.06" fx="25.01" fy="-295.06" gradientTransform="matrix(1.02 0 0 -.36 -1.45 -98.7)" r="15.52" xlink:href="#d"/><path d="m33.06 40.77c0 1.35-4.06 2.45-9.06 2.45s-9.06-1.1-9.06-2.45v-.69s5.22-1.76 9.06-1.76 9.05 1.79 9.05 1.79v.65z" fill="url(#a)"/><ellipse cx="24" cy="40.08" fill="url(#b)" rx="9.06" ry="2.45"/><path d="m24.02 40.5h-.03c-.59 0-1.07-.48-1.07-1.07v-14.57c0-.59.48-1.07 1.07-1.07h.03c.59 0 1.07.48 1.07 1.07v14.57c0 .59-.48 1.07-1.07 1.07z" fill="url(#c)"/><path d="m31.11 5.79s.03.06.03.09c0 .57-3.2 1.04-7.15 1.04s-7.15-.47-7.15-1.04c0-.03.01-.05.02-.07-.93 1.91-2.79 6.51-2.79 12.67 0 8.46 6.23 10.89 9.92 10.89s9.92-2.42 9.92-10.89c0-6.19-1.88-10.8-2.8-12.69z" fill="url(#d)"/><path d="m15.15 14.93c-.14 1.11-.22 2.3-.22 3.55 0 7.92 5.7 10.04 9.07 10.04s9.06-2.11 9.06-10.04c0-1.24-.08-2.41-.21-3.51l-17.71-.04z" fill="url(#e)"/><ellipse cx="24" cy="14.93" fill="url(#f)" rx="8.85" ry="1.32"/><path d="m18.48 5.56 3.88.05s-2.6 4.52-2.6 11.92 1.43 9.59 1.43 9.59-5.2-.71-5.2-11.53c0-5.08 2.5-10.03 2.5-10.03z" fill="url(#g)" opacity=".78"/><ellipse cx="24" cy="5.89" fill="url(#h)" rx="7.15" ry="1.04"/><path d="m31.15 5.89c-.08.33-.44.45-.7.59-.29.13-.58.23-.88.33-.6.17-1.22.3-1.83.4-1.23.22-2.48.28-3.73.3-1.25-.01-2.5-.08-3.73-.3-.61-.11-1.23-.23-1.83-.4-.3-.1-.6-.2-.88-.33-.26-.13-.63-.26-.7-.59.13.28.49.33.76.43.29.08.59.13.9.18.6.11 1.21.17 1.82.22 1.22.1 2.44.15 3.67.15 1.22 0 2.45-.05 3.67-.14.61-.05 1.22-.11 1.82-.22.3-.05.6-.1.9-.18.27-.09.63-.14.76-.43z" fill="url(#i)"/><ellipse cx="24" cy="5.89" fill="url(#j)" rx="7.15" ry="1.04"/></svg>