<svg viewBox="0 0 48 48" xmlns="http://www.w3.org/2000/svg" xmlns:xlink="http://www.w3.org/1999/xlink"><radialGradient id="a" cx="170.1" cy="77.62" gradientTransform="matrix(.99979506 -.02024444 .02024444 .99979506 -147.69 -36.33)" gradientUnits="userSpaceOnUse" r="10.89"><stop offset="0" stop-color="#eff2f7"/><stop offset=".18" stop-color="#c5c9d0"/><stop offset=".35" stop-color="#a6aab3"/><stop offset=".44" stop-color="#9a9fa8"/><stop offset=".56" stop-color="#7e838a"/><stop offset=".82" stop-color="#393a3e"/><stop offset="1" stop-color="#070708"/></radialGradient><radialGradient id="b" cx="170.33" cy="1284.64" gradientTransform="matrix(.99979506 -.02024444 .00566844 .27994262 -153.27 -311.49)" gradientUnits="userSpaceOnUse" r="6.36"><stop offset="0" stop-color="#070708"/><stop offset=".08" stop-color="#313336"/><stop offset=".18" stop-color="#5e6167"/><stop offset=".26" stop-color="#7f838a"/><stop offset=".33" stop-color="#9397a0"/><stop offset=".38" stop-color="#9a9fa8"/><stop offset=".42" stop-color="#a0a5ad"/><stop offset="1" stop-color="#eff2f7"/></radialGradient><radialGradient id="c" cx="170.44" cy="-214.37" gradientTransform="matrix(.99979506 -.02024444 .05526731 2.72944051 -134.29 624.14)" gradientUnits="userSpaceOnUse" r="3.34"><stop offset="0" stop-color="#eff2f7"/><stop offset=".21" stop-color="#c5c9d0"/><stop offset=".4" stop-color="#a6aab3"/><stop offset=".51" stop-color="#9a9fa8"/><stop offset=".61" stop-color="#7e838a"/><stop offset=".84" stop-color="#393a3e"/><stop offset="1" stop-color="#070708"/></radialGradient><radialGradient id="d" cx="170.35" cy="-161.29" gradientTransform="matrix(.99979506 -.02024444 .03765465 1.85961881 -140.58 313.37)" gradientUnits="userSpaceOnUse" r="10.11"><stop offset="0" stop-color="#eff2f7"/><stop offset=".23" stop-color="#edf0f5"/><stop offset=".36" stop-color="#e5e8ed"/><stop offset=".46" stop-color="#d7dae1"/><stop offset=".55" stop-color="#c3c7ce"/><stop offset=".62" stop-color="#aaafb7"/><stop offset=".67" stop-color="#9a9fa8"/><stop offset=".71" stop-color="#9398a1"/><stop offset=".77" stop-color="#81858d"/><stop offset=".84" stop-color="#63676d"/><stop offset=".92" stop-color="#3a3c3f"/><stop offset="1" stop-color="#070708"/></radialGradient><radialGradient id="e" cx="170.49" cy="-125.43" gradientTransform="matrix(.99979506 -.02024444 .03360576 1.6596598 -142.32 228.46)" gradientUnits="userSpaceOnUse" r="6.12"><stop offset="0" stop-color="#fdf5a7"/><stop offset=".09" stop-color="#fcf1a0"/><stop offset=".22" stop-color="#fae88d"/><stop offset=".38" stop-color="#f6d76d"/><stop offset=".55" stop-color="#f1c141"/><stop offset=".57" stop-color="#f0be3b"/><stop offset=".64" stop-color="#e9b83a"/><stop offset=".75" stop-color="#d5a938"/><stop offset=".88" stop-color="#b58f35"/><stop offset="1" stop-color="#8f7131"/></radialGradient><radialGradient id="f" cx="-345.09" cy="567.7" gradientTransform="matrix(1.80833196 -.07768866 .02461666 .74963425 634.45 -439.82)" gradientUnits="userSpaceOnUse" r="6.4"><stop offset=".15" stop-color="#fdf5a7"/><stop offset=".64" stop-color="#f6d66a"/><stop offset="1" stop-color="#f0be3b"/></radialGradient><linearGradient id="g" gradientTransform="matrix(.99979506 -.02024444 .02024444 .99979506 -147.69 -36.33)" gradientUnits="userSpaceOnUse" x1="167.56" x2="167.56" y1="49.65" y2="70.13"><stop offset="0" stop-color="#fff" stop-opacity=".7"/><stop offset="1" stop-color="#fff" stop-opacity="0"/></linearGradient><radialGradient id="h" cx="170.39" cy="1764" fx="170.39" fy="1764" gradientTransform="matrix(.99979506 -.02024444 .00708555 .34992827 -159.48 -616.72)" gradientUnits="userSpaceOnUse" r="7.82"><stop offset="0" stop-color="#eff2f7"/><stop offset=".11" stop-color="#e7eaef"/><stop offset=".29" stop-color="#d0d4da"/><stop offset=".52" stop-color="#abafb8"/><stop offset=".6" stop-color="#9a9fa8"/><stop offset=".7" stop-color="#6a6e74"/><stop offset=".8" stop-color="#404246"/><stop offset=".88" stop-color="#212224"/><stop offset=".95" stop-color="#0e0e0f"/><stop offset="1" stop-color="#070708"/></radialGradient><radialGradient id="i" cx="159.64" cy="828.59" fx="159.64" fy="828.59" gradientTransform="matrix(1.01979096 -.02064932 .007288 .35992622 -145.31 -290.62)" r="13.2" xlink:href="#h"/><path d="m30.89 43.41c0 .94-2.95 1.87-6.56 1.87s-6.56-.67-6.56-1.61v-.54s3.75-1.34 6.56-1.34 6.56 1.2 6.56 1.2v.4z" fill="url(#a)"/><path d="m30.89 42.87c0 .94-2.95 1.87-6.56 1.87-3.61.13-6.56-.67-6.56-1.61s2.95-1.87 6.56-1.87 6.56.67 6.56 1.61z" fill="url(#b)"/><path d="m24.33 43.28c-.4 0-.8-.4-.8-.8l-.4-20.88c0-.4.4-.8.8-.8.4 0 .8.4.8.8l.4 20.88c0 .4-.27.8-.8.8z" fill="url(#c)"/><path d="m29.56 3.52-12.18.27s-.67 8.03.27 13.12c1.07 6.02 3.21 11.11 6.29 10.98s4.95-5.22 5.89-11.24c.8-5.09-.27-13.12-.27-13.12z" fill="url(#d)"/><path d="m18.44 11.28c.13 1.34 0 4.28.27 5.35 1.2 6.29 3.21 10.17 5.35 10.17s4.02-4.02 4.82-10.44c.4-2.28.27-3.08.13-5.62 0 0-2.54-1.07-5.35.94-2.68.13-5.22-.4-5.22-.4z" fill="url(#e)"/><path d="m29.02 10.88c0 .54-2.28.94-5.22 1.07s-5.35-.13-5.35-.67 2.28-.94 5.22-1.07c2.95-.13 5.35.13 5.35.67z" fill="url(#f)"/><g fill="#cfa248"><circle cx="25" cy="21.19" r=".4"/><circle cx="23.53" cy="17.04" r=".4"/><circle cx="23" cy="19.31" r=".4"/><circle cx="25.41" cy="17.98" r=".4"/><circle cx="23.8" cy="22.66" r=".4"/><circle cx="22.19" cy="15.57" r=".4"/><circle cx="25.41" cy="14.09" r=".4"/></g><path d="m18.85 3.79s-.8 5.35 0 11.65c.54 4.69 2.41 9.5 4.69 11.24 0 0-2.14-4.82-2.68-11.11-.54-7.63.54-11.51.54-11.51l-2.54-.27z" fill="url(#g)"/><path d="m29.56 3.52c0 .27-.4.4-.54.54-.27.13-.54.27-.8.27-.54.13-1.07.27-1.61.4-1.07.27-2.14.27-3.21.27s-2.14 0-3.21-.13c-.54-.13-1.07-.13-1.61-.27-.27-.13-.54-.13-.8-.27-.27-.13-.54-.27-.67-.54.13.27.4.27.67.4.27 0 .54.13.8.13.54.13 1.07.13 1.61.13 1.07 0 2.14.13 3.08 0 1.07 0 2.14-.13 3.08-.13.54 0 1.07-.13 1.61-.27.27 0 .54-.13.8-.13.4-.13.8-.13.8-.4z" fill="url(#h)"/><path d="m29.56 3.52c0 .54-2.68.94-6.02 1.07s-6.02-.27-6.16-.8c0-.54 2.68-.94 6.02-1.07 3.48 0 6.16.27 6.16.8z" fill="url(#i)"/></svg>