<svg viewBox="0 0 48 48" xmlns="http://www.w3.org/2000/svg" xmlns:xlink="http://www.w3.org/1999/xlink"><radialGradient id="a" cx="23.59" cy="32.93" gradientUnits="userSpaceOnUse" r="15.07"><stop offset="0" stop-color="#eff2f7"/><stop offset=".18" stop-color="#c5c9d0"/><stop offset=".35" stop-color="#a6aab3"/><stop offset=".44" stop-color="#9a9fa8"/><stop offset=".56" stop-color="#7e838a"/><stop offset=".82" stop-color="#393a3e"/><stop offset="1" stop-color="#070708"/></radialGradient><radialGradient id="b" cx="24" cy="1986.21" gradientTransform="matrix(1 0 0 .28 0 -513.48)" gradientUnits="userSpaceOnUse" r="8.79"><stop offset="0" stop-color="#070708"/><stop offset=".08" stop-color="#313336"/><stop offset=".18" stop-color="#5e6167"/><stop offset=".26" stop-color="#7f838a"/><stop offset=".33" stop-color="#9397a0"/><stop offset=".38" stop-color="#9a9fa8"/><stop offset=".42" stop-color="#a0a5ad"/><stop offset="1" stop-color="#eff2f7"/></radialGradient><radialGradient id="c" cx="24.04" cy="41.5" gradientTransform="matrix(1 0 0 1.54 0 -28.66)" gradientUnits="userSpaceOnUse" r="4.39"><stop offset="0" stop-color="#eff2f7"/><stop offset=".21" stop-color="#c5c9d0"/><stop offset=".4" stop-color="#a6aab3"/><stop offset=".51" stop-color="#9a9fa8"/><stop offset=".61" stop-color="#7e838a"/><stop offset=".84" stop-color="#393a3e"/><stop offset="1" stop-color="#070708"/></radialGradient><radialGradient id="d" cx="24.41" cy="322.83" fx="24.41" fy="322.83" gradientTransform="matrix(1 0 0 .9 0 -278.8)" gradientUnits="userSpaceOnUse" r="20.37"><stop offset="0" stop-color="#eff2f7"/><stop offset=".11" stop-color="#e7eaef"/><stop offset=".29" stop-color="#d0d4da"/><stop offset=".52" stop-color="#abafb8"/><stop offset=".6" stop-color="#9a9fa8"/><stop offset=".7" stop-color="#6a6e74"/><stop offset=".8" stop-color="#404246"/><stop offset=".88" stop-color="#212224"/><stop offset=".95" stop-color="#0e0e0f"/><stop offset="1" stop-color="#070708"/></radialGradient><radialGradient id="e" cx="24.28" cy="94.33" gradientTransform="matrix(1 0 0 1.32 0 -108.96)" gradientUnits="userSpaceOnUse" r="9.78"><stop offset=".15" stop-color="#dbc189"/><stop offset=".29" stop-color="#d7be88"/><stop offset=".43" stop-color="#cbb380"/><stop offset=".57" stop-color="#b7a376"/><stop offset=".71" stop-color="#9a8965"/><stop offset=".85" stop-color="#766b51"/><stop offset=".98" stop-color="#494439"/><stop offset="1" stop-color="#444037"/></radialGradient><radialGradient id="f" cx="24.15" cy="2459.78" gradientTransform="matrix(1 0 0 .23 0 -550.54)" gradientUnits="userSpaceOnUse" r="17.46"><stop offset="0" stop-color="#ededed"/><stop offset="1" stop-color="#cfb275"/></radialGradient><linearGradient id="g" gradientUnits="userSpaceOnUse" x1="6.41" x2="30.82" y1="16.4" y2="16.4"><stop offset=".36" stop-color="#fff" stop-opacity=".7"/><stop offset="1" stop-color="#fff" stop-opacity="0"/></linearGradient><radialGradient id="h" cx="12.15" cy="1414.05" fx="12.15" fy="1414.05" gradientTransform="matrix(1.02 0 0 .36 11.66 -501.36)" r="15.52" xlink:href="#d"/><radialGradient id="i" cx="24" cy="2206.25" fx="24" fy="2206.25" gradientTransform="matrix(1 0 0 .35 0 -774.52)" r="9.18" xlink:href="#d"/><radialGradient id="j" cx="12.15" cy="1413.28" fx="12.15" fy="1413.28" gradientTransform="matrix(1.02 0 0 .36 11.66 -502.15)" r="15.52" xlink:href="#d"/><path d="m33.1 40.8c0 1.4-4.1 2.4-9.1 2.4s-9.1-1.1-9.1-2.4v-.7s5.2-1.8 9.1-1.8 9 1.8 9 1.8.1.4.1.7z" fill="url(#a)"/><ellipse cx="24" cy="40.1" fill="url(#b)" rx="9.1" ry="2.4"/><path d="m24 40.5c-.6 0-1.1-.5-1.1-1.1v-14.5c0-.6.5-1.1 1.1-1.1.6 0 1.1.5 1.1 1.1v14.6c0 .5-.5 1-1.1 1z" fill="url(#c)"/><path d="m31.1 5.8s0 .1 0 0c0 .7-3.2 1.1-7.1 1.1s-7.1-.5-7.1-1v-.1c-.9 1.9-2.8 6.5-2.8 12.7 0 8.5 6.2 10.9 9.9 10.9s9.9-2.4 9.9-10.9c0-6.2-1.9-10.8-2.8-12.7z" fill="url(#d)"/><path d="m15.1 14.9c-.1 1.1-.2 2.3-.2 3.6 0 7.9 5.7 10 9.1 10s9.1-2.1 9.1-10c0-1.2-.1-2.4-.2-3.5z" fill="url(#e)"/><ellipse cx="24" cy="14.9" fill="url(#f)" rx="8.8" ry="1.3"/><path d="m18.5 5.6 3.9.1s-2.6 4.5-2.6 11.9 1.4 9.6 1.4 9.6-5.2-.8-5.2-11.6c0-5.1 2.5-10 2.5-10z" fill="url(#g)" opacity=".78"/><ellipse cx="24" cy="5.9" fill="url(#h)" rx="7.1" ry="1"/><path d="m31.1 5.9c-.1.3-.4.5-.7.6s-.6.2-.9.3c-.5.2-1.2.3-1.8.4-1.2.2-2.5.3-3.7.3s-2.5-.1-3.7-.3c-.6-.1-1.3-.2-1.9-.4-.3-.1-.6-.2-.9-.3s-.6-.3-.7-.6c.1.3.5.3.8.4s.6.1.9.2c.6.1 1.2.2 1.8.2 1.2.1 2.4.1 3.7.1 1.2 0 2.4 0 3.7-.1.6 0 1.2-.1 1.8-.2.3 0 .6-.1.9-.2s.6-.1.7-.4z" fill="url(#i)"/><ellipse cx="24" cy="5.9" fill="url(#j)" rx="7.1" ry="1"/></svg>